<?xml version="1.0" encoding="UTF-8" standalone="no"?>
<!DOCTYPE svg PUBLIC "-//W3C//DTD SVG 1.1//EN" "http://www.w3.org/Graphics/SVG/1.1/DTD/svg11.dtd">
<svg version="1.1" xmlns="http://www.w3.org/2000/svg" xmlns:xlink="http://www.w3.org/1999/xlink" preserveAspectRatio="xMidYMid meet" viewBox="0 0 640 640" width="640" height="640"><defs><path d="M115.27 323.38C198.15 162.34 266.4 68.54 320 41.96" id="ggThunp54"></path><path d="M320 41.96L76.08 182.67" id="bonUJlbXR"></path><path d="M320 604.8L563.92 463.08" id="bh8WKz0rZ"></path><path d="M216.65 500.74C121.6 354.8 74.75 248.6 76.08 182.16" id="b1yX7gEMAN"></path><path d="M76.08 463.58L76.08 183.18" id="ajb2V6Cip"></path><path d="M562.37 182.16L319.53 41.96" id="hdaZwRmT"></path><path d="M217.97 146.01C407.16 138.36 522.48 150.74 563.92 183.18" id="b1HJriBnU2"></path><path d="M320 604.8L76.08 463.08" id="h44IidyKn"></path><path d="M419.8 500.74C238.27 510.65 123.69 498.27 76.08 463.58" id="a4Y4GsZe3Z"></path><path d="M563.92 183.68L563.92 463.58" id="b8EAWiyeN"></path><path d="M424.05 148.04C502.43 256.15 549.05 361.16 563.92 463.08" id="b3YI9M7rc"></path><path d="M524.23 321.88C441.35 482.91 373.11 577.22 319.53 604.8" id="ajQTnp7e1"></path></defs><g><g><g><g><use xlink:href="#ggThunp54" opacity="1" fill-opacity="0" stroke="#6f04d9" stroke-width="2" stroke-opacity="1"></use></g></g><g><use xlink:href="#bonUJlbXR" opacity="1" fill="#ef3f22" fill-opacity="1"></use><g><use xlink:href="#bonUJlbXR" opacity="1" fill-opacity="0" stroke="#6f04d9" stroke-width="2" stroke-opacity="1"></use></g></g><g><g><use xlink:href="#bh8WKz0rZ" opacity="1" fill-opacity="0" stroke="#a61f5e" stroke-width="2" stroke-opacity="1"></use></g></g><g><g><use xlink:href="#b1yX7gEMAN" opacity="1" fill-opacity="0" stroke="#620ef3" stroke-width="2" stroke-opacity="1"></use></g></g><g><g><use xlink:href="#ajb2V6Cip" opacity="1" fill-opacity="0" stroke="#620ef3" stroke-width="2" stroke-opacity="1"></use></g></g><g><g><use xlink:href="#hdaZwRmT" opacity="1" fill-opacity="0" stroke="#9303a6" stroke-width="2" stroke-opacity="1"></use></g></g><g><g><use xlink:href="#b1HJriBnU2" opacity="1" fill-opacity="0" stroke="#9303a6" stroke-width="2" stroke-opacity="1"></use></g></g><g><g><use xlink:href="#h44IidyKn" opacity="1" fill-opacity="0" stroke="#6726c9" stroke-width="2" stroke-opacity="1"></use></g></g><g><g><use xlink:href="#a4Y4GsZe3Z" opacity="1" fill-opacity="0" stroke="#6726c9" stroke-width="2" stroke-opacity="1"></use></g></g><g><g><use xlink:href="#b8EAWiyeN" opacity="1" fill-opacity="0" stroke="#a61f5e" stroke-width="2" stroke-opacity="1"></use></g></g><g><g><use xlink:href="#b3YI9M7rc" opacity="1" fill-opacity="0" stroke="#a61f5e" stroke-width="2" stroke-opacity="1"></use></g></g><g><g><use xlink:href="#ajQTnp7e1" opacity="1" fill-opacity="0" stroke="#a61f5e" stroke-width="2" stroke-opacity="1"></use></g></g></g></g></svg>